<?xml version="1.0" encoding="utf-8"?>
<!-- Generator: Adobe Illustrator 19.0.0, SVG Export Plug-In . SVG Version: 6.00 Build 0)  -->
<svg version="1.1" id="Layer_1" xmlns="http://www.w3.org/2000/svg" xmlns:xlink="http://www.w3.org/1999/xlink" x="0px" y="0px"
	 viewBox="-379 394.8 149.2 172.2" style="enable-background:new -379 394.8 149.2 172.2;" xml:space="preserve">
<style type="text/css">
	.st0{fill:#585858;}
	.st1{fill:#FFFFFF;}
</style>
<polygon class="st0" points="-229.8,523.9 -304.4,567 -379,523.9 -379,437.8 -304.4,394.8 -229.8,437.8 "/>
<path class="st1" d="M-337.1,479.5l25.1,26.8l-12.1-26.8H-337.1z M-304.4,510.6l14.1-31.1h-28.1L-304.4,510.6z M-324,474.4l8.2-15.5
	h-10.6l-11.6,15.5C-337.9,474.4-324,474.4-324,474.4z M-296.8,506.3l25.1-26.8h-13L-296.8,506.3z M-318.2,474.4h27.5l-8.2-15.5h-11
	L-318.2,474.4z M-284.8,474.4h13.9l-11.6-15.5h-10.6L-284.8,474.4z M-279.2,454.8l15.5,20.6c0.4,0.5,0.5,1,0.5,1.7
	c0,0.6-0.3,1.2-0.7,1.6l-38.7,41.2c-0.5,0.5-1.1,0.8-1.9,0.8c-0.8,0-1.4-0.3-1.9-0.8l-38.7-41.2c-0.4-0.5-0.7-1-0.7-1.6
	c0-0.6,0.1-1.2,0.5-1.7l15.5-20.6c0.5-0.7,1.2-1,2.1-1h46.4C-280.3,453.7-279.6,454.1-279.2,454.8z"/>
</svg>
